<svg xmlns="http://www.w3.org/2000/svg" xmlns:xlink="http://www.w3.org/1999/xlink" width="468.943" height="321.618" viewBox="0 0 468.943 321.618">
  <defs>
    <clipPath id="clip-path">
      <path id="Path_5" data-name="Path 5" d="M556.773,368.954s90.518.631,71.378-58.159c-16.019-49.2,40.955-36.217,36.005-78.389-4.511-38.411-60.417-30.285-63.691-2.616-2.044,17.28-17.819,35.685-41.554,38.163S515.7,289.287,556.773,368.954Z" transform="translate(-532.891 -206.275)" fill="none"/>
    </clipPath>
    <clipPath id="clip-path-2">
      <path id="Path_8" data-name="Path 8" d="M524.825,349.439s31.587-84.831-30.2-86.978c-51.715-1.8-20.005-50.88-61.323-60.668-37.635-8.914-49.142,46.393-24.267,58.946,15.535,7.837,27.428,28.959,21.629,52.108S435.91,360.751,524.825,349.439Z" transform="translate(-395.835 -200.825)" fill="none"/>
    </clipPath>
    <clipPath id="clip-path-3">
      <path id="Path_12" data-name="Path 12" d="M459.892,274.811l-20.163-28.116s26.494-22.472,47.546-29.087c28.72-9.026,168.228,5.841,181.3,15.276,11.889,8.587,23.811,82.8,9.078,144.419-1.434,6-20.36,31.142-30.676,35.908C632.886,419.717,459.892,274.811,459.892,274.811Z" transform="translate(-439.729 -214.808)" fill="#0085ff"/>
    </clipPath>
    <clipPath id="clip-path-4">
      <path id="Path_17" data-name="Path 17" d="M482.609,253.71l34.278,3.2-.382,80.75-34.278-3.2Z" transform="translate(-482.227 -253.71)" fill="#0085ff"/>
    </clipPath>
    <clipPath id="clip-path-5">
      <path id="Path_20" data-name="Path 20" d="M574.178,290.318c.761-15.239,1.334-60.33,1.334-60.33s1.444-40-37.222-40.386c-22.864-.227-34.033,16.566-35.308,33.166-.9,11.751-1.2,49.622-2.029,58.021-.471,4.74-.426,10.683-18.028,11.954-8.609.621-17.816-3.938-18.1-7.514-.311-3.925-1.758-41.465-.069-66.4,1.6-23.56,5.233-69.252,76.319-67.8,72.267,1.481,74.771,54.924,73.6,81.914-1.691,39.194-1.721,50.5-2.6,59.818-.562,6.009-11.091,10.942-20.779,10.207C582.2,302.28,573.88,296.292,574.178,290.318Z" transform="translate(-463.954 -151)" fill="none"/>
    </clipPath>
  </defs>
  <g id="Group_117" data-name="Group 117" transform="translate(-351.533 -151)">
    <g id="Group_99" data-name="Group 99" transform="translate(688.905 253.826)" opacity="0.3">
      <path id="Path_3" data-name="Path 3" d="M556.773,368.954s90.518.631,71.378-58.159c-16.019-49.2,40.955-36.217,36.005-78.389-4.511-38.411-60.417-30.285-63.691-2.616-2.044,17.28-17.819,35.685-41.554,38.163S515.7,289.287,556.773,368.954Z" transform="translate(-532.891 -206.275)" fill="#0085ff" fill-rule="evenodd"/>
      <g id="Group_98" data-name="Group 98">
        <g id="Group_97" data-name="Group 97" clip-path="url(#clip-path)">
          <path id="Path_4" data-name="Path 4" d="M643.442,233.746a85.441,85.441,0,0,1,33.976-3.248s.231.026-.035.208a80,80,0,0,0-34.872,4.563l-.192-.039-1.423,1.881-.009.153-.7.9a.378.378,0,0,1-.061-.039q-2.436,3.228-4.859,6.463c11.405-4.245,24.58-3.281,34.761-1.479,2.015.355,4.018.755,6.023,1.15,0,0,.908.156-.2.776-14.419-1.923-29.42-3.717-41.947,1.377q-5.26,7.035-10.475,14.091a25.765,25.765,0,0,1,4.271-1.021c14.925-2.031,29.771,2.316,43.028,7.2,0,0,1.466.415.465.8q-1.1-.338-2.2-.672c-3.017-.9-6.061-1.752-9.1-2.558-.389-.1-.387-.1-.772-.21-11.79-3.283-24.434-5.3-36.552-2.368q-5.7,7.713-11.366,15.442a43.755,43.755,0,0,1,7.45-2.53q1.646-.332,3.309-.575a68.49,68.49,0,0,1,9.232-.686s7.112.3,11.429.964a101.939,101.939,0,0,1,12.774,2.854s1.535.383-.071,1.166q-.673-.159-1.347-.312c-14.506-3.211-30.59-3.892-43.677.346q-3.812,5.193-7.62,10.391c13.928-2.091,28,.153,40.49,4.061,0,0,.66.207-.251.614-13.265-3.611-27.5-5.439-41.242-3.3q-5.285,7.216-10.583,14.432a85.057,85.057,0,0,1,19.566-2.718,114.32,114.32,0,0,1,22.595,2.413L640.075,306s1.667.367.229,1.07c-2.919-.644-7.168-1.425-7.168-1.425-.48-.1-.962-.2-1.445-.292-12.732-2.465-26.079-3.222-39.017-.017-.83.208-1.81.452-2.653.664q-5.1,6.94-10.231,13.874c19.923-2.889,40.28-2.1,58.416,3.056,0,0,1.5.326.759.675A157.23,157.23,0,0,0,578.8,321.21q-4.091,5.522-8.209,11.031c1.851-.216,3.369-.355,3.369-.355,20.083-.482,39.627,5.583,56.857,14.568a3.307,3.307,0,0,1,.5.979l-.919.246c-17.031-8.594-36.241-14.475-56.312-13.892,0,0-2.3-.028-4.68.035q-6.078,8.115-12.244,16.2s-3.01,3.875-5.61,7.138c0,0-2.9,3.131-6.068,6.472,0,0-1.317,1.657-1.457-.145,1.65-2.268,3.214-4.578,4.734-6.913,0,0,5.908-7.687,10.084-13.076q3.608-4.674,7.194-9.363c-.839-1.763-2.091-4.446-3.012-6.643-3.35-8-6.792-15.946-11.316-23.344a112.774,112.774,0,0,0-22.463-26.5l-.136-.348c14.458,12.144,25.471,27.266,33.644,44.1l.2.407c1.271,2.824,2.8,5.611,3.534,8.579.184.755.355,1.581.5,2.337l.145-.021q4.78-6.262,9.53-12.547l-.854-1.858c-.69-2.487-1.384-4.976-2.128-7.45,0,0-1.274-4.721-2.709-8.611-5.119-13.876-14.069-26.248-24.57-37.1l-.193-.75c13.076,12.865,23.847,27.995,29.567,45.574.755,2.569,1.444,5.155,2.132,7.741,0,0,.013.192.063.722q4.554-6.033,9.089-12.08c-7.908-15.747-12.311-32.793-27.919-46.856l-.316-.705.467-.02c8.287,6.929,15.358,15,20.026,24.831,3.3,6.944,5.479,14.45,8.652,21.538q5.6-7.467,11.18-14.938c-.822-1.462-1.985-3.59-2.779-5.322-5.136-11.374-11.221-22.435-19.419-32.264l-.3-1.036a7.989,7.989,0,0,1,1.814,1.412A120.264,120.264,0,0,1,599.9,289.187q4.177-5.586,8.352-11.173c-1.375-2.487-3.843-7-5.132-9.573-4.107-8.153-8.5-16.047-14.85-22.474l.034-.685a4.115,4.115,0,0,1,1.674.848A63.6,63.6,0,0,1,600.7,259.568s2.229,4.022,3.525,6.8c1.654,3.538,3.389,7.06,4.755,10.685q5.545-7.414,11.1-14.811c-.061-.262.009,0-.255-.651,0,0-2.8-4.173-4.783-6.855-5.73-7.9-11.225-16.156-18.958-22.386l-.186-.646.573-.056c7.393,5.469,13.3,12.32,18.681,19.681,2.229,3.043,4.725,6.066,5.927,9.582q3.315-4.406,6.641-8.8a1.981,1.981,0,0,1-.041-.2c-1.153-7.672-4.478-14.824-8.358-21.467a125.408,125.408,0,0,0-14.428-19.871l.05-.567a6.118,6.118,0,0,1,1.643,1.086c8.872,9.19,16.711,19.464,20.3,30.594a50.8,50.8,0,0,1,1.989,8.911q5.335-7.046,10.708-14.058c-.1-12.367-5.279-24.31-12.019-33.561,0,0-.061-1.823,1.654.309a54.656,54.656,0,0,1,9.554,16.843,45.768,45.768,0,0,1,2.219,14.573q7.76-10.1,15.626-20.1l.545-.688s.785-.938,1.031.653Q650.735,224.118,643.442,233.746Z" transform="translate(-536.142 -209.748)" fill="#fff" fill-rule="evenodd"/>
        </g>
      </g>
    </g>
    <g id="Group_102" data-name="Group 102" transform="translate(433.946 243.687)" opacity="0.3">
      <path id="Path_6" data-name="Path 6" d="M524.825,349.439s31.587-84.831-30.2-86.978c-51.715-1.8-20.005-50.88-61.323-60.668-37.635-8.914-49.142,46.393-24.267,58.946,15.535,7.837,27.428,28.959,21.629,52.108S435.91,360.751,524.825,349.439Z" transform="translate(-395.835 -200.825)" fill="#0085ff" fill-rule="evenodd"/>
      <g id="Group_101" data-name="Group 101">
        <g id="Group_100" data-name="Group 100" clip-path="url(#clip-path-2)">
          <path id="Path_7" data-name="Path 7" d="M426.9,228.362a85.422,85.422,0,0,1,8.583-33.034s.1-.206.182.106a80.028,80.028,0,0,0-7.653,34.325l-.1.167,1.28,1.981.14.061.612.964a.409.409,0,0,1-.058.045q2.2,3.393,4.409,6.777c-.084-12.17,5.332-24.217,10.512-33.165,1.023-1.771,2.085-3.518,3.142-5.268,0,0,.458-.8.659.458-6.743,12.888-13.565,26.369-13.068,39.882q4.808,7.353,9.653,14.668a25.877,25.877,0,0,1,.5-4.364c3.2-14.716,12.371-27.178,21.5-37.958,0,0,.893-1.237.912-.166q-.695.918-1.386,1.842c-1.875,2.53-3.722,5.093-5.519,7.677-.227.331-.229.327-.463.653-7.121,9.952-13.344,21.144-14.739,33.531q5.293,7.994,10.615,15.966a43.916,43.916,0,0,1,.175-7.865q.251-1.66.591-3.308a68.906,68.906,0,0,1,2.517-8.909s2.716-6.58,4.818-10.408A102.345,102.345,0,0,1,471.771,232s.886-1.311,1.072.465c-.253.385-.5.772-.753,1.161-7.984,12.527-14.13,27.407-14.631,41.154q3.574,5.36,7.156,10.717c2.8-13.8,9.729-26.257,17.678-36.653,0,0,.42-.549.491.445-7.936,11.228-14.529,23.979-17.226,37.62q4.97,7.436,9.936,14.884a85.054,85.054,0,0,1,4.147-19.313,114.384,114.384,0,0,1,10-20.4l3.994-5.806s.915-1.44,1.083.153c-1.6,2.521-3.793,6.245-3.793,6.245-.259.417-.513.837-.77,1.258-6.675,11.121-11.956,23.4-13.375,36.654-.087.85-.193,1.855-.283,2.72q4.772,7.171,9.53,14.363c4.107-19.709,11.816-38.565,22.874-53.839,0,0,.822-1.3.895-.48a157.207,157.207,0,0,0-22.849,55.709q3.786,5.732,7.553,11.489c.432-1.812.82-3.287.82-3.287,6.422-19.034,18.813-35.319,33.155-48.432a3.342,3.342,0,0,1,1.09-.136l-.084.947c-13.907,13.057-26.008,29.1-32.335,48.151,0,0-.813,2.149-1.568,4.411q5.542,8.488,11.028,17.049s2.61,4.158,4.786,7.716c0,0,1.948,3.8,4,7.917,0,0,1.109,1.806-.634,1.321-1.564-2.329-3.2-4.587-4.872-6.816,0,0-5.2-8.183-8.834-13.952q-3.153-4.992-6.332-9.965c-1.946.184-4.894.443-7.274.556-8.661.407-17.306.921-25.807,2.638a112.8,112.8,0,0,0-32.594,12.028l-.374.009c16.361-9.426,34.34-14.6,52.956-16.51l.45-.048c3.09-.227,6.23-.711,9.272-.381.772.086,1.607.206,2.368.326l.028-.141q-4.244-6.638-8.526-13.252l-2.037.167c-2.575-.2-5.151-.4-7.729-.551,0,0-4.872-.42-9.018-.406-14.789.06-29.478,4.232-43.268,10.384l-.768-.074c16.564-7.882,34.467-12.821,52.943-12.175,2.671.169,5.337.409,8,.647,0,0,.184.054.7.188q-4.107-6.345-8.237-12.678c-17.5,2.039-35.025.34-53.583,10.189l-.77.056.139-.446c9.348-5.413,19.352-9.294,30.188-10.311,7.653-.72,15.453-.2,23.2-.755q-5.1-7.816-10.207-15.621c-1.654.273-4.052.636-5.953.791-12.443.932-24.918,2.861-36.961,7.2l-1.077-.073A7.975,7.975,0,0,1,422.726,296a120.226,120.226,0,0,1,41.361-7.741q-3.82-5.84-7.638-11.675c-2.807.439-7.889,1.215-10.752,1.544-9.067,1.068-17.985,2.491-26.2,6.258l-.634-.264a4.141,4.141,0,0,1,1.371-1.284,63.637,63.637,0,0,1,16.3-5.469s4.539-.716,7.59-.984c3.892-.342,7.793-.766,11.668-.809q-5.067-7.749-10.114-15.5c-.268-.03,0-.007-.7.017,0,0-4.879,1.2-8.077,2.147-9.387,2.679-19.025,5.015-27.526,10.148l-.67-.048.143-.556c7.67-5.073,16.128-8.273,24.888-10.812,3.624-1.053,7.318-2.363,11.033-2.288q-3.005-4.624-6-9.255a1.468,1.468,0,0,1-.206-.032c-7.6-1.542-15.462-.869-23.032.5a125.505,125.505,0,0,0-23.612,6.753l-.515-.242a6.1,6.1,0,0,1,1.583-1.17c11.673-5.19,24.01-9.035,35.694-8.6a50.793,50.793,0,0,1,9.054,1.183q-4.794-7.425-9.543-14.875c-11.654-4.135-24.646-3.361-35.646-.2,0,0-1.734-.567.856-1.449a54.635,54.635,0,0,1,19.1-3.211,45.776,45.776,0,0,1,14.452,2.906q-6.831-10.749-13.53-21.562l-.459-.748s-.614-1.058.965-.744Q420.354,218.213,426.9,228.362Z" transform="translate(-399.648 -205.611)" fill="#fff" fill-rule="evenodd"/>
        </g>
      </g>
    </g>
    <path id="Path_9" data-name="Path 9" d="M459.892,274.811l-20.163-28.116s26.494-22.472,47.546-29.087c28.72-9.026,168.228,5.841,181.3,15.276,11.889,8.587,23.811,82.8,9.078,144.419-1.434,6-20.36,31.142-30.676,35.908C632.886,419.717,459.892,274.811,459.892,274.811Z" transform="translate(75.871 54.891)" fill="#897fdb" fill-rule="evenodd"/>
    <g id="Group_105" data-name="Group 105" transform="translate(515.6 269.699)">
      <path id="Path_10" data-name="Path 10" d="M459.892,274.811l-20.163-28.116s26.494-22.472,47.546-29.087c28.72-9.026,168.228,5.841,181.3,15.276,11.889,8.587,23.811,82.8,9.078,144.419-1.434,6-20.36,31.142-30.676,35.908C632.886,419.717,459.892,274.811,459.892,274.811Z" transform="translate(-439.729 -214.808)" fill="#0085ff"/>
      <g id="Group_104" data-name="Group 104" clip-path="url(#clip-path-3)">
        <g id="Group_103" data-name="Group 103" transform="translate(182.801 6.65)">
          <path id="Path_11" data-name="Path 11" d="M541.406,269.055s31.721-22.068,46.231-47.675,46.543,119.811,16.508,172.135S538,443.943,538,443.943,545.327,269.663,541.406,269.055Z" transform="translate(-537.996 -218.383)" fill="#0085ff" fill-rule="evenodd"/>
        </g>
      </g>
    </g>
    <path id="Path_13" data-name="Path 13" d="M442.871,234.222c-9.593,8.379-8.968,140.4,1.5,148.171,12.363,9.18,194.629,31.113,206.934,19.594,8.605-8.055,13.392-139.831-7.657-151.707C620.2,237.042,457.935,221.065,442.871,234.222Z" transform="translate(72.729 67.364)" fill="#3c495b" fill-rule="evenodd"/>
    <path id="Path_14" data-name="Path 14" d="M482.609,253.71l34.278,3.2-.382,80.75-34.278-3.2Z" transform="translate(112.43 88.356)" fill="#897fdb" fill-rule="evenodd"/>
    <g id="Group_109" data-name="Group 109" transform="translate(594.657 342.066)">
      <path id="Path_15" data-name="Path 15" d="M482.609,253.71l34.278,3.2-.382,80.75-34.278-3.2Z" transform="translate(-482.227 -253.71)" fill="#0085ff"/>
      <g id="Group_108" data-name="Group 108" clip-path="url(#clip-path-4)">
        <g id="Group_107" data-name="Group 107" transform="translate(11.668 -0.481)">
          <g id="Group_106" data-name="Group 106">
            <path id="Path_16" data-name="Path 16" d="M488.908,253.451l23.6,2.2-.409,86.556-23.6-2.2Z" transform="translate(-488.499 -253.451)" fill="#0085ff" fill-rule="evenodd"/>
          </g>
        </g>
      </g>
    </g>
    <g id="Group_110" data-name="Group 110" transform="translate(554.45 273.097)">
      <ellipse id="Ellipse_3" data-name="Ellipse 3" cx="24.504" cy="11.569" rx="24.504" ry="11.569" fill="#3c495b"/>
    </g>
    <g id="Group_111" data-name="Group 111" transform="translate(663.077 280.757)">
      <ellipse id="Ellipse_4" data-name="Ellipse 4" cx="12.363" cy="25.155" rx="12.363" ry="25.155" transform="translate(0 24.684) rotate(-86.683)" fill="#3c495b"/>
    </g>
    <path id="Path_18" data-name="Path 18" d="M574.178,290.318c.761-15.239,1.334-60.33,1.334-60.33s1.444-40-37.222-40.386c-22.864-.227-34.033,16.566-35.308,33.166-.9,11.751-1.2,49.622-2.029,58.021-.471,4.74-.426,10.683-18.028,11.954-8.609.621-17.816-3.938-18.1-7.514-.311-3.925-1.758-41.465-.069-66.4,1.6-23.56,5.233-69.252,76.319-67.8,72.267,1.481,74.771,54.924,73.6,81.914-1.691,39.194-1.721,50.5-2.6,59.818-.562,6.009-11.091,10.942-20.779,10.207C582.2,302.28,573.88,296.292,574.178,290.318Z" transform="translate(96.71 0)" fill="#0085ff" fill-rule="evenodd"/>
    <g id="Group_115" data-name="Group 115" transform="translate(560.664 151)">
      <g id="Group_114" data-name="Group 114" clip-path="url(#clip-path-5)">
        <g id="Group_113" data-name="Group 113" transform="translate(-11.68 -27.763)" opacity="0.5">
          <g id="Group_112" data-name="Group 112">
            <path id="Path_19" data-name="Path 19" d="M461.111,279.949s13.238,12.551,26.222,1.507c0,0,.065-27.3,1.825-47.831.966-11.256.569-32.776,20.437-43.582,34.3-18.656,47.016,8.507,76.806-20.353,10.018-9.7,10.864-43.255-42.345-30.929S444.475,197.05,461.111,279.949Z" transform="translate(-457.675 -136.075)" fill="#0085ff" fill-rule="evenodd"/>
          </g>
        </g>
      </g>
    </g>
    <g id="Group_116" data-name="Group 116" transform="translate(351.533 317.212)">
      <path id="Path_21" data-name="Path 21" d="M405.11,276.65a27.655,27.655,0,0,1-25.928,17.557c-15.26,0-27.649-12.067-27.649-26.929s12.389-26.929,27.649-26.929a27.654,27.654,0,0,1,25.936,17.579h97.25v-8.382h17.392v8.382h7.378v-8.834h12.892v8.834h7.435v-8.7h9.115v27.537h-9.115v-.114Zm-25.9-21.614a12.2,12.2,0,1,1-12.627,12.194A12.424,12.424,0,0,1,379.214,255.036Z" transform="translate(-351.533 -240.349)" fill="#0085ff" fill-rule="evenodd"/>
    </g>
  </g>
</svg>
