<svg width="535" height="655" viewBox="0 0 535 655" fill="none" xmlns="http://www.w3.org/2000/svg">
<path d="M390.746 0.862061H144.582C143.708 0.862061 143 1.57052 143 2.44445V223.696C143 224.57 143.708 225.279 144.582 225.279H390.746C391.62 225.279 392.329 224.57 392.329 223.696V2.44445C392.329 1.57052 391.62 0.862061 390.746 0.862061Z" fill="#25224A"/>
<path d="M386.791 31.2948V204.114C386.791 206.912 384.531 209.172 381.734 209.172H266.683H153.651C150.854 209.172 148.594 206.912 148.594 204.114V31.2948C148.594 28.4974 150.854 26.2368 153.651 26.2368H381.706C384.503 26.2368 386.763 28.4974 386.763 31.2948H386.791Z" fill="#F4F8FE"/>
<path d="M335.174 14.1146C335.174 17.0816 332.772 19.4834 329.806 19.4834C326.839 19.4834 324.438 17.0816 324.438 14.1146C324.438 11.1476 326.839 8.74576 329.806 8.74576C332.772 8.74576 335.174 11.1476 335.174 14.1146Z" fill="white"/>
<path d="M371.111 14.1146C371.111 17.0816 368.709 19.4834 365.743 19.4834C362.776 19.4834 360.375 17.0816 360.375 14.1146C360.375 11.1476 362.776 8.74576 365.743 8.74576C368.709 8.74576 371.111 11.1476 371.111 14.1146Z" fill="white"/>
<path d="M353.142 14.1146C353.142 17.0816 350.741 19.4834 347.774 19.4834C344.808 19.4834 342.406 17.0816 342.406 14.1146C342.406 11.1476 344.808 8.74576 347.774 8.74576C350.741 8.74576 353.142 11.1476 353.142 14.1146Z" fill="white"/>
<path d="M186.735 16.4881H155.77C154.471 16.4881 153.397 15.4144 153.397 14.1146C153.397 12.8147 154.471 11.741 155.77 11.741H186.735C188.035 11.741 189.108 12.8147 189.108 14.1146C189.108 15.4144 188.035 16.4881 186.735 16.4881Z" fill="white"/>
<path d="M203.369 137.893C203.369 137.893 189.964 168.306 184.746 181.742L199.441 192.36L222.682 153.909L203.369 137.893Z" fill="#FBB792"/>
<path d="M191.501 209.185H202.125H212.749L194.792 184.022L185.526 179.763C185.526 179.763 179.768 190.65 181.717 198.988C182.707 203.218 182.636 202.556 189.653 209.185H191.501Z" fill="#FBB792"/>
<path d="M313.666 132.644L329.8 172.295L312.737 179.853C312.737 179.853 290.185 148.18 289.526 143.861C288.866 139.572 293.904 134.233 293.904 134.233L313.666 132.614V132.644Z" fill="#FBB792"/>
<path d="M281.189 77.4866C281.189 77.4866 286.437 76.4069 287.127 80.8759C287.816 85.3448 284.698 86.2446 284.698 86.2446C284.698 86.2446 289.436 81.1158 292.644 84.8349C295.853 88.5541 290.395 91.5534 290.395 91.5534C290.395 91.5534 296.453 88.3741 297.533 92.4532C298.612 96.5322 293.754 98.9617 293.754 98.9617C293.754 98.9617 298.972 98.6617 298.732 100.971C298.492 103.281 293.514 101.271 293.514 101.271C293.514 101.271 300.831 102.741 299.572 108.529C298.312 114.318 292.584 110.929 292.584 110.929C292.584 110.929 296.993 113.328 295.703 120.647C294.414 127.965 261.666 112.489 261.666 112.489L261.457 92.5731L281.249 77.4866H281.189Z" fill="#352736"/>
<path d="M243.074 76.7968C243.074 76.7968 237.886 75.5371 237.016 79.9761C236.176 84.4151 239.235 85.4348 239.235 85.4348C239.235 85.4348 234.707 80.1261 231.348 83.7552C227.99 87.3544 233.357 90.5636 233.357 90.5636C233.357 90.5636 227.42 87.1744 226.19 91.1935C224.961 95.2426 229.729 97.822 229.729 97.822C229.729 97.822 224.511 97.3421 224.661 99.6515C224.811 101.961 229.879 100.131 229.879 100.131C229.879 100.131 222.502 101.361 223.581 107.18C224.631 112.998 230.479 109.819 230.479 109.819C230.479 109.819 225.98 112.069 227.03 119.417C228.05 126.765 261.337 112.489 261.337 112.489L262.266 92.6032L243.044 76.7968H243.074Z" fill="#352736"/>
<path d="M281.189 77.4866C281.189 77.4866 286.437 76.4069 287.127 80.8759C287.816 85.3448 284.698 86.2446 284.698 86.2446C284.698 86.2446 289.436 81.1158 292.644 84.8349C295.853 88.5541 290.395 91.5534 290.395 91.5534C290.395 91.5534 296.453 88.3741 297.533 92.4532C298.612 96.5322 293.754 98.9617 293.754 98.9617C293.754 98.9617 298.972 98.6617 298.732 100.971C298.492 103.281 293.514 101.271 293.514 101.271C293.514 101.271 300.831 102.741 299.572 108.529C298.312 114.318 292.584 110.929 292.584 110.929C292.584 110.929 296.993 113.328 295.703 120.647C294.414 127.965 261.666 112.489 261.666 112.489L261.457 92.5731L281.249 77.4866H281.189Z" fill="#25224A"/>
<path d="M243.074 76.7968C243.074 76.7968 237.886 75.5371 237.016 79.9761C236.176 84.4151 239.235 85.4348 239.235 85.4348C239.235 85.4348 234.707 80.1261 231.348 83.7552C227.99 87.3544 233.357 90.5636 233.357 90.5636C233.357 90.5636 227.42 87.1744 226.19 91.1935C224.961 95.2426 229.729 97.822 229.729 97.822C229.729 97.822 224.511 97.3421 224.661 99.6515C224.811 101.961 229.879 100.131 229.879 100.131C229.879 100.131 222.502 101.361 223.581 107.18C224.631 112.998 230.479 109.819 230.479 109.819C230.479 109.819 225.98 112.069 227.03 119.417C228.05 126.765 261.337 112.489 261.337 112.489L262.266 92.6032L243.044 76.7968H243.074Z" fill="#25224A"/>
<path d="M250.541 107.54C255.579 104.9 254.469 91.6734 254.469 91.6734L261.936 92.3032V91.8233L262.746 92.0933L263.556 91.8533V92.3332L271.053 91.9733C271.053 91.9733 269.464 105.14 274.412 107.96C279.36 110.779 308.898 112.669 305.15 143.081L262.656 142.302H261.067L218.573 141.522C215.934 110.989 245.503 110.179 250.571 107.54H250.541Z" fill="#A8544F"/>
<path d="M271.863 104.51C265.895 103.521 259.927 102.471 253.989 101.421C254.919 96.8922 254.469 91.6734 254.469 91.6734L261.936 92.3032V91.8233L262.746 92.0633L263.556 91.8233V92.3032L271.053 91.9433C271.053 91.9433 270.123 99.5915 271.893 104.48L271.863 104.51Z" fill="#FF9561"/>
<path d="M279.15 70.6183C280.829 65.6694 284.608 66.8991 284.967 67.0191C285.327 67.0791 289.256 67.7089 288.476 72.8977C287.696 78.0865 284.638 80.8759 281.789 79.9761C278.88 79.4662 277.41 75.5971 279.12 70.6183H279.15Z" fill="#FBB792"/>
<path d="M247.122 70.0184C245.623 65.0095 241.784 66.0893 241.424 66.2093C241.064 66.2393 237.106 66.7491 237.706 71.9679C238.306 77.1867 241.274 80.0661 244.123 79.2862C247.062 78.8663 248.652 75.0572 247.122 70.0184Z" fill="#FBB792"/>
<path d="M283.168 63.15C281.579 41.285 264.965 42.2148 263.406 42.3648C261.846 42.1848 245.293 40.6552 242.894 62.4301C240.495 84.3251 250.001 98.8417 262.386 98.2718C274.741 99.2916 284.758 85.1349 283.168 63.15Z" fill="#FBB792"/>
<path d="M262.746 42.3348C262.746 42.3348 261.487 55.6817 281.669 61.6503C281.669 61.6503 280.979 68.3987 282.598 74.8173C282.598 74.8173 289.346 65.4594 286.437 54.212C283.558 42.9646 268.054 33.6968 262.746 42.3348Z" fill="#25224A"/>
<path d="M264.365 42.3648C264.365 42.3648 264.515 55.7417 244.123 60.9905C244.123 60.9905 244.933 69.5085 243.074 75.837C243.074 75.837 236.326 64.4997 239.625 53.3722C242.924 42.2148 259.387 33.5468 264.365 42.3648Z" fill="#25224A"/>
<path d="M217.368 209.282L225.95 175.12L217.284 142.038C214.555 111.085 245.053 110.245 250.271 107.576C252.28 106.556 253.33 103.916 253.87 101.097C256.628 101.757 259.627 102.147 262.746 102.207C265.805 102.267 268.774 101.997 271.503 101.457C271.952 104.306 272.912 106.946 274.861 108.025C279.959 110.875 310.428 112.824 306.589 143.657L295.703 173.41C295.703 173.41 305.539 193.146 306.409 209.282H217.368Z" fill="#0382FD"/>
<path d="M288.476 112.009C288.476 112.009 299.572 114.678 308.118 122.446C316.665 130.184 320.714 142.272 320.714 142.272L297.383 154.569L288.506 112.039L288.476 112.009Z" fill="#0382FD"/>
<path d="M233.357 112.369C233.357 112.369 222.202 114.798 213.505 122.386C204.809 129.974 200.49 141.942 200.49 141.942L223.581 154.719L233.357 112.369Z" fill="#0382FD"/>
<path d="M311.507 168.156L334.268 117.677L348.423 120.917C348.423 120.917 337.477 168.905 334.418 175.744C328.511 188.911 305.36 185.162 311.507 168.156Z" fill="#FBB792"/>
<path d="M329.65 98.3319C331.509 99.3216 334.358 101.721 336.667 103.821L342.215 97.0421C342.515 96.6522 343.145 95.8724 343.955 94.9126C346.714 91.6434 351.722 86.0047 353.731 84.565C356.34 82.7055 357.03 85.2249 355.83 86.6346C354.9 87.7143 349.712 95.2726 347.403 98.6918L347.523 98.8417C350.012 95.8424 355.86 89.154 358.079 87.5643C360.688 85.7048 361.378 88.2242 360.178 89.6339C359.129 90.8336 352.771 100.191 351.062 102.711L351.152 102.801C353.851 99.5916 359.099 93.6529 361.168 92.1833C363.777 90.3237 364.467 92.8431 363.267 94.2528C362.457 95.1826 358.559 100.851 355.98 104.6C358.649 102.021 361.798 99.1417 363.237 98.2719C365.756 96.7722 366.206 99.1417 365.006 100.311C364.167 101.121 359.908 106.37 357.299 109.609L348.993 120.587L346.474 127.785L332.379 122.866L334.298 117.677L332.739 109.249C331.27 106.7 329.26 103.251 328.151 101.841C326.351 99.5016 326.082 96.4123 329.65 98.3319Z" fill="#FBB792"/>
<path d="M353.851 108.26C353.791 108.26 353.731 108.2 353.701 108.14L344.434 97.8519C344.284 97.672 344.284 97.432 344.434 97.2821C344.614 97.1321 344.854 97.1321 345.004 97.2821L354.271 107.57C354.421 107.75 354.421 107.99 354.271 108.14C354.151 108.23 354.001 108.26 353.851 108.23V108.26Z" fill="#FF9561"/>
<path d="M340.356 111.409C340.176 111.349 340.086 111.169 340.086 110.989C340.386 107.63 337.897 104.99 337.867 104.99C337.717 104.84 337.717 104.57 337.867 104.42C338.017 104.27 338.287 104.27 338.437 104.42C338.557 104.54 341.196 107.33 340.866 111.079C340.866 111.289 340.656 111.469 340.416 111.439C340.386 111.439 340.356 111.439 340.326 111.439L340.356 111.409Z" fill="#FF9561"/>
<path d="M260.017 81.5957C260.197 81.6856 260.407 81.7756 260.617 81.8356L262.926 82.4055C262.986 82.4055 263.046 82.4055 263.046 82.3155C263.046 82.2555 263.046 82.1955 262.956 82.1955L260.647 81.6257C259.597 81.3557 258.878 80.396 258.968 79.4062C258.998 79.1362 259.088 78.8663 259.207 78.6264L263.436 70.8582C263.436 70.7982 263.436 70.7382 263.406 70.7082C263.376 70.6782 263.286 70.7082 263.256 70.7382L259.028 78.5064C258.878 78.7763 258.788 79.0763 258.758 79.3762C258.638 80.276 259.147 81.1758 259.987 81.5957H260.017Z" fill="#FF9561"/>
<path d="M262.896 83.3652C262.836 83.3652 262.746 83.3652 262.686 83.3652L260.377 82.7954C260.077 82.7354 259.807 82.6154 259.537 82.4655C258.338 81.8056 257.678 80.5759 257.828 79.2562C257.888 78.8363 258.008 78.4164 258.218 78.0565L262.446 70.2883C262.596 70.0483 262.806 69.8384 263.076 69.7784C263.346 69.6884 263.646 69.7184 263.886 69.8684C264.126 70.0183 264.335 70.2283 264.395 70.4982C264.485 70.7682 264.455 71.0681 264.305 71.308L260.107 79.0762C260.047 79.2262 259.987 79.3462 259.957 79.4961C259.897 80.006 260.317 80.5459 260.887 80.6659L263.196 81.2357C263.766 81.3857 264.126 81.9556 263.976 82.5254C263.916 82.7954 263.736 83.0353 263.496 83.1853C263.316 83.3053 263.106 83.3653 262.896 83.3353V83.3652Z" fill="#FF9561"/>
<path d="M268.804 88.3741C265.385 91.8233 259.807 91.8533 256.359 88.4341C255.879 87.9542 255.879 87.1744 256.359 86.6945C256.838 86.2146 257.618 86.2146 258.098 86.6945C260.587 89.1539 264.575 89.1239 267.034 86.6345C267.514 86.1546 268.294 86.1546 268.774 86.6345C269.254 87.1144 269.254 87.8942 268.774 88.3741H268.804Z" fill="#FF9561"/>
<path d="M285.957 72.5378C286.767 74.7873 285.597 77.3067 283.348 78.1165C283.018 78.2365 282.688 78.0565 282.568 77.7566C282.448 77.4267 282.628 77.0967 282.928 76.9768C284.548 76.3769 285.387 74.6073 284.817 72.9877C284.698 72.6578 284.877 72.3278 285.177 72.2079C285.507 72.0879 285.837 72.2679 285.957 72.5678V72.5378Z" fill="#FF9561"/>
<path d="M239.775 72.5378C238.965 74.7873 240.135 77.3067 242.384 78.1165C242.714 78.2365 243.044 78.0565 243.164 77.7566C243.284 77.4267 243.104 77.0967 242.804 76.9768C241.184 76.3769 240.345 74.6073 240.915 72.9877C241.035 72.6578 240.855 72.3278 240.555 72.2079C240.225 72.0879 239.895 72.2679 239.775 72.5678V72.5378Z" fill="#FF9561"/>
<path d="M276.421 64.5896C276.661 64.5297 276.871 64.4097 277.081 64.2297C277.65 63.6899 277.65 62.8201 277.141 62.2802C275.551 60.6006 271.353 58.4111 266.735 62.1302C266.135 62.6101 266.045 63.4799 266.525 64.0798C267.004 64.6796 267.874 64.7696 268.474 64.2897C272.252 61.2304 275.011 64.0498 275.131 64.1697C275.491 64.5297 275.971 64.6796 276.451 64.5597L276.421 64.5896Z" fill="#25224A"/>
<path d="M249.281 65.2195C249.041 65.1895 248.801 65.0695 248.622 64.8896C248.052 64.3797 247.992 63.5099 248.502 62.94C250.031 61.2004 254.169 58.891 258.908 62.4601C259.507 62.91 259.627 63.7798 259.177 64.4097C258.728 65.0095 257.858 65.1295 257.228 64.6796C253.36 61.7403 250.691 64.6796 250.571 64.7696C250.241 65.1595 249.731 65.3095 249.281 65.2195Z" fill="#25224A"/>
<path d="M268.624 70.4383C270.333 68.5787 273.242 68.4288 275.101 70.1384C275.371 70.3783 275.371 70.7982 275.131 71.0382C274.891 71.2781 274.472 71.3081 274.232 71.0682C272.882 69.8384 270.813 69.9284 269.583 71.2781C269.344 71.548 268.924 71.548 268.684 71.3081C268.414 71.0682 268.414 70.6483 268.654 70.4083L268.624 70.4383Z" fill="#301325"/>
<path d="M250.451 70.4383C252.16 68.5787 255.069 68.4288 256.928 70.1384C257.198 70.3783 257.198 70.7982 256.958 71.0382C256.718 71.3081 256.299 71.3081 256.059 71.0682C254.709 69.8384 252.64 69.9284 251.41 71.2781C251.171 71.548 250.751 71.548 250.511 71.3081C250.241 71.0682 250.241 70.6483 250.481 70.4083L250.451 70.4383Z" fill="#301325"/>
<path d="M250.481 74.1274C253.03 72.8077 254.709 72.8077 257.258 74.1274C257.558 74.2774 257.948 74.2174 258.128 73.9475C258.308 73.6775 258.158 73.2576 257.798 73.0777C254.829 71.548 252.88 71.548 249.911 73.0777C249.551 73.2576 249.401 73.6775 249.581 73.9475C249.761 74.2174 250.151 74.2774 250.451 74.1274H250.481Z" fill="#FF9561"/>
<path d="M268.384 74.1274C270.933 72.8077 272.612 72.8077 275.161 74.1274C275.461 74.2774 275.851 74.2174 276.031 73.9475C276.211 73.6775 276.061 73.2576 275.701 73.0777C272.732 71.548 270.783 71.548 267.814 73.0777C267.454 73.2576 267.304 73.6775 267.484 73.9475C267.664 74.2174 268.054 74.2774 268.354 74.1274H268.384Z" fill="#FF9561"/>
<path d="M300.974 75.6451C303.347 75.8429 307.19 75.1365 309.478 74.5996C311.823 74.0627 310.862 73.7801 313.264 74.4865C314.62 74.8821 316.004 75.1365 317.389 75.2777C322.502 75.8994 330.385 75.7016 334.764 73.8084C339.878 71.6043 341.121 66.6876 341.403 61.3188C341.771 54.1698 340.98 46.5687 334.905 43.6017C329.594 41.0303 319.479 41.1151 313.914 42.3302C312.699 42.6127 311.484 43.0083 310.354 43.5169C304.28 46.2861 303.658 54.4241 304.167 61.3188C304.562 66.8289 305.636 65.0487 304.167 69.1742C303.743 70.3893 303.319 71.4348 302.81 72.5651C301.822 74.9104 301.172 74.9952 300.974 75.6168V75.6451Z" fill="#0084FF"/>
<path d="M327.729 64.964C327.729 65.0487 327.729 65.1052 327.701 65.19C327.277 66.7441 326.091 68.0157 324.537 68.5243C323.35 68.9199 322.079 68.9199 320.892 68.5243C319.338 68.0157 318.152 66.7724 317.728 65.19C317.728 65.1052 317.7 65.0487 317.7 64.964C317.7 64.7662 317.926 64.6531 318.208 64.8227C319.592 65.5856 321.175 65.9529 322.757 65.9247C324.339 65.9529 325.893 65.5856 327.277 64.8227C327.56 64.6531 327.786 64.7662 327.786 64.964H327.729Z" fill="white"/>
<path d="M328.633 52.2201C332.476 51.2876 333.747 57.165 329.933 57.9845C326.175 58.8039 324.819 53.1243 328.633 52.2201Z" fill="white"/>
<path d="M315.439 52.2201C319.14 51.3441 320.638 56.7977 316.993 57.928C315.439 58.4083 313.772 57.5324 313.292 55.9782V55.9217C312.812 54.3676 313.688 52.757 315.242 52.2766C315.298 52.2766 315.383 52.2483 315.439 52.2201Z" fill="white"/>
<path d="M308.337 426.982L214.482 406.496L198.293 381.008L190.043 382.873L186.851 447.044L256.832 471.26L220.782 565.441L243.667 580.897C243.667 580.897 317.886 476.177 323.423 464.479C328.961 452.78 327.012 431.192 308.365 426.982H308.337Z" fill="#0D5999"/>
<path d="M188.941 235.174C199.847 211.89 199.508 186.713 210.442 163.429L211.741 159.869C208.859 151.166 194.705 149.979 187.388 152.494C180.07 155.009 175.663 160.801 173.205 166.961C170.747 173.121 169.927 179.818 167.893 186.12C162.977 201.322 150.97 214.631 152.27 231.105L175.465 236.869L181.426 225.058L180.635 236.163L188.97 235.145L188.941 235.174Z" fill="#25224A"/>
<path d="M195.327 164.249C196.739 161.423 198.208 158.541 200.412 156.252C202.616 153.992 205.752 152.381 208.888 152.748C210.357 152.918 211.911 153.652 212.504 155.037C213.097 156.422 212.165 158.371 210.668 158.343L210.357 158.626C207.249 161.762 204.085 164.87 200.864 167.894C200.045 168.657 199.197 169.42 198.18 169.815C197.135 170.211 195.835 170.155 195.044 169.363C193.744 168.063 194.479 165.859 195.298 164.221L195.327 164.249Z" fill="#64D9CC"/>
<path d="M203.435 159.106C214.623 151.025 227.563 148.114 240.954 151.448C248.498 153.342 251.21 155.715 256.239 158.626C261.268 161.536 265.393 165.746 267.399 171.2C269.772 177.671 271.382 184.622 270.337 191.46C269.263 198.468 268.19 205.504 265.845 212.201C263.5 218.898 259.827 225.284 254.318 229.748L236.151 228.138C226.461 225.905 216.657 223.617 207.899 218.954C199.141 214.264 191.399 206.832 188.574 197.281C184.647 184.057 192.247 167.188 203.435 159.106Z" fill="#25224A"/>
<path d="M218.917 163.119L244.542 160.095L250.391 162.412C263.98 166.085 269.376 183.605 266.523 194.653C263.359 206.917 259.008 221.808 254.657 230.314C245.899 247.437 229.992 244.809 229.992 244.809L228.184 252.439L230.218 267.019L207.249 278.039L175.521 267.245L191.512 243.849L211.12 167.724C212.137 164.418 215.499 162.412 218.889 163.147L218.917 163.119Z" fill="#FFC19D"/>
<path d="M256.468 208.14C256.101 209.383 254.773 210.089 253.474 209.75C252.174 209.411 251.411 208.111 251.778 206.896C252.146 205.653 253.474 204.947 254.773 205.286C256.073 205.625 256.836 206.925 256.468 208.14Z" fill="#1A2E35"/>
<path d="M239.231 215.168C239.259 215.026 240.898 215.253 243.525 215.761C244.175 215.902 244.825 215.959 245.079 215.563C245.39 215.14 245.333 214.377 245.277 213.529C245.192 211.805 245.079 209.969 244.966 208.075C244.599 200.333 244.571 194.032 244.881 194.032C245.192 194.032 245.729 200.276 246.096 208.047C246.181 209.94 246.238 211.777 246.294 213.501C246.294 214.292 246.435 215.253 245.814 216.1C245.475 216.524 244.91 216.722 244.458 216.694C244.006 216.694 243.638 216.581 243.328 216.496C240.757 215.818 239.203 215.309 239.231 215.168Z" fill="#FF9561"/>
<path d="M244.514 216.976C244.486 216.976 244.458 216.976 244.429 216.976C244.006 216.976 243.667 216.863 243.356 216.807H243.243C238.835 215.592 238.864 215.422 238.948 215.111C239.033 214.8 239.061 214.631 243.554 215.479C244.006 215.592 244.655 215.676 244.797 215.422C245.051 215.055 244.994 214.207 244.938 213.557L244.627 208.104C244.571 206.719 244.006 194.484 244.599 193.862L244.684 193.777H244.825C245.164 193.749 245.334 193.749 245.701 198.101C245.927 200.757 246.153 204.261 246.322 208.019L246.407 210.308C246.435 211.381 246.492 212.455 246.52 213.472C246.52 213.585 246.52 213.727 246.52 213.84C246.52 214.546 246.577 215.45 245.983 216.242C245.588 216.722 244.966 216.948 244.486 216.948L244.514 216.976ZM241.322 215.648C241.858 215.789 242.508 215.987 243.384 216.213H243.497C243.78 216.326 244.09 216.411 244.458 216.411C244.825 216.411 245.305 216.298 245.588 215.931C246.068 215.281 246.04 214.574 246.012 213.868C246.012 213.727 246.012 213.614 246.012 213.501C245.983 212.483 245.927 211.438 245.899 210.336L245.814 208.047C245.56 202.452 245.221 198.129 244.966 195.868C244.91 198.129 244.966 202.48 245.249 208.047L245.56 213.501C245.644 214.461 245.673 215.224 245.305 215.705C244.938 216.326 243.949 216.1 243.469 216.015C242.593 215.846 241.915 215.733 241.35 215.648H241.322Z" fill="#FF9561"/>
<path d="M230.049 244.781C230.049 244.781 217.646 241.588 207.984 230.455C207.984 230.455 210.329 245.064 228.947 249.274L230.049 244.781Z" fill="#FF9C6A"/>
<path d="M230.473 213.614C231.009 213.614 230.925 217.259 233.976 219.943C237.027 222.628 240.926 222.317 240.954 222.854C241.011 223.08 240.079 223.532 238.412 223.532C236.801 223.532 234.456 222.967 232.592 221.328C230.727 219.689 229.964 217.541 229.879 216.044C229.795 214.518 230.218 213.614 230.473 213.642V213.614Z" fill="#FF9561"/>
<path d="M238.383 223.814C236.745 223.814 234.343 223.221 232.422 221.526C230.473 219.83 229.71 217.57 229.625 216.044C229.54 214.716 229.823 213.811 230.162 213.501C230.303 213.388 230.416 213.359 230.501 213.359C230.896 213.359 231.009 213.783 231.235 214.574C231.603 215.846 232.196 217.993 234.202 219.745C236.18 221.497 238.525 221.949 239.937 222.204C240.813 222.373 241.265 222.458 241.265 222.825C241.265 222.91 241.265 223.023 241.152 223.136C240.87 223.475 239.909 223.814 238.44 223.814C238.44 223.814 238.412 223.814 238.383 223.814ZM230.444 214.009C230.303 214.264 230.105 214.942 230.162 216.015C230.247 217.428 230.981 219.519 232.789 221.102C234.597 222.684 236.858 223.249 238.383 223.249C238.383 223.249 238.412 223.249 238.44 223.249C239.542 223.249 240.22 223.051 240.531 222.91C240.333 222.854 240.05 222.797 239.796 222.769C238.44 222.515 235.897 222.034 233.806 220.169C231.687 218.304 231.038 215.987 230.67 214.716C230.586 214.461 230.529 214.179 230.444 214.009Z" fill="#FF9561"/>
<path d="M262.257 194.136C261.635 194.616 259.855 193.571 257.567 193.034C255.307 192.412 253.244 192.469 252.933 191.762C252.792 191.423 253.244 190.915 254.205 190.547C255.165 190.18 256.663 190.039 258.245 190.462C259.799 190.858 261.07 191.706 261.72 192.469C262.398 193.26 262.539 193.91 262.257 194.136Z" fill="#1A2E35"/>
<path d="M229.487 199.465C229.092 200.68 229.798 202.036 231.069 202.46C232.341 202.884 233.697 202.262 234.092 201.047C234.488 199.832 233.782 198.476 232.51 198.052C231.239 197.6 229.883 198.25 229.487 199.465Z" fill="#1A2E35"/>
<path d="M230.473 185.433C230.812 186.139 232.931 186.111 235.276 186.733C237.649 187.298 239.485 188.343 240.107 187.891C240.389 187.665 240.248 186.987 239.542 186.196C238.835 185.404 237.536 184.557 235.925 184.161C234.315 183.737 232.761 183.879 231.801 184.218C230.812 184.557 230.36 185.094 230.501 185.433H230.473Z" fill="#1A2E35"/>
<path d="M206.091 199.316C206.514 197.959 206.006 194.286 204.735 193.664C201.373 191.969 194.903 190.16 191.88 199.146C187.783 211.438 200.949 212.992 201.09 212.653C201.203 212.37 204.565 203.978 206.062 199.316H206.091Z" fill="#FFC19D"/>
<path d="M199.225 207.03C199.197 206.973 198.971 207.115 198.547 207.143C198.152 207.199 197.502 207.086 196.937 206.634C195.807 205.73 195.383 203.3 196.061 201.068C196.4 199.937 196.993 198.948 197.671 198.214C198.35 197.451 199.141 196.999 199.819 197.112C200.525 197.168 200.864 197.733 200.892 198.129C200.949 198.524 200.779 198.751 200.836 198.779C200.836 198.835 201.175 198.666 201.231 198.129C201.26 197.875 201.231 197.535 201.005 197.196C200.779 196.857 200.412 196.603 199.932 196.49C198.971 196.236 197.813 196.829 197.05 197.648C196.231 198.468 195.553 199.57 195.157 200.813C194.422 203.3 194.903 206.041 196.513 207.171C197.304 207.68 198.095 207.651 198.576 207.51C199.056 207.341 199.225 207.086 199.169 207.058L199.225 207.03Z" fill="#FF9C6A"/>
<path d="M204.226 193.579L206.515 197.705C223.692 188.239 259.234 162.553 257.2 164.107C257.2 164.107 248.837 157.75 238.214 156.761C227.563 155.772 206.882 155.715 204 167.809C201.09 179.903 204.226 193.551 204.226 193.551V193.579Z" fill="#25224A"/>
<path d="M190.608 202.593C190.552 202.593 190.298 202.141 189.902 201.294C189.506 200.418 188.941 199.174 188.376 197.535C187.811 195.925 187.331 193.89 187.275 191.602C187.19 189.341 187.331 186.826 187.67 184.255C188.263 178.999 190.524 174.647 192.303 171.765C193.208 170.296 194.027 169.194 194.648 168.459C195.242 167.724 195.637 167.357 195.666 167.385C195.779 167.47 194.451 169.109 192.812 172.076C191.202 175.015 189.083 179.281 188.518 184.396C187.811 189.51 187.868 194.201 188.97 197.394C189.959 200.615 190.778 202.565 190.637 202.622L190.608 202.593Z" fill="#25224A"/>
<path d="M256.098 227.799C256.182 227.827 255.815 228.872 255.024 230.455C254.205 232.037 252.905 234.156 251.153 236.219C249.402 238.31 247.509 239.921 246.012 240.882C244.514 241.871 243.497 242.294 243.441 242.21C243.384 242.097 244.316 241.532 245.701 240.458C247.085 239.384 248.865 237.773 250.588 235.739C254.063 231.67 255.9 227.686 256.126 227.799H256.098Z" fill="#FF9C6A"/>
<path d="M266.043 568.493L247.396 602.26C247.396 602.26 277.513 633.314 274.716 639.926L204.029 604.633L230.784 550.804L266.043 568.521V568.493Z" fill="#25224A"/>
<path d="M226.998 588.442C225.444 588.103 223.777 589.092 223.438 590.561C223.099 592.031 224.201 593.726 225.726 594.093C227.28 594.461 229.314 593.33 229.484 591.833C229.653 590.335 228.269 588.414 226.687 588.414" fill="#E1E1E1"/>
<path d="M204.028 604.605L206.938 599.293L273.614 635.122C273.614 635.122 276.101 637.976 274.688 639.898L204 604.605H204.028Z" fill="#085FB4"/>
<path d="M248.724 602.486C248.554 602.797 246.746 602.09 244.514 602.288C242.282 602.429 240.7 603.418 240.446 603.107C240.163 602.881 241.661 601.186 244.373 600.988C247.085 600.762 248.95 602.203 248.724 602.457V602.486Z" fill="white"/>
<path d="M254.685 609.07C254.6 609.437 252.82 609.239 250.956 610.03C249.063 610.765 248.017 612.121 247.678 611.923C247.339 611.81 248.046 609.776 250.391 608.843C252.736 607.883 254.826 608.759 254.685 609.07Z" fill="white"/>
<path d="M254.657 619.553C254.318 619.468 254.657 617.603 256.437 616.247C258.217 614.89 260.194 615.003 260.194 615.343C260.251 615.71 258.725 616.134 257.284 617.264C255.815 618.366 255.024 619.694 254.657 619.553Z" fill="white"/>
<path d="M252.058 594.291C251.775 594.517 250.419 593.274 248.385 592.426C246.379 591.55 244.571 591.409 244.514 591.042C244.429 590.703 246.52 590.25 248.893 591.268C251.267 592.285 252.368 594.122 252.058 594.291Z" fill="white"/>
<path d="M274.321 569.679L255.674 603.446C255.674 603.446 285.791 634.501 282.994 641.113L212.307 605.82L239.062 551.991L274.321 569.708V569.679Z" fill="#25224A"/>
<path d="M235.276 589.629C233.722 589.29 232.055 590.279 231.716 591.748C231.377 593.217 232.479 594.913 234.004 595.28C235.558 595.647 237.592 594.517 237.762 593.02C237.931 591.522 236.547 589.6 234.965 589.6" fill="#E1E1E1"/>
<path d="M212.306 605.82L215.216 600.508L281.892 636.337C281.892 636.337 284.378 639.191 282.966 641.113L212.278 605.82H212.306Z" fill="#085FB4"/>
<path d="M257.002 603.672C256.832 603.983 255.024 603.277 252.792 603.475C250.56 603.616 248.978 604.605 248.724 604.294C248.441 604.068 249.939 602.373 252.651 602.175C255.363 601.949 257.228 603.39 257.002 603.644V603.672Z" fill="white"/>
<path d="M262.963 610.285C262.878 610.652 261.098 610.454 259.234 611.245C257.341 611.98 256.295 613.336 255.956 613.139C255.617 613.026 256.324 610.991 258.669 610.059C261.014 609.098 263.104 609.974 262.963 610.285Z" fill="white"/>
<path d="M262.963 620.768C262.624 620.683 262.963 618.818 264.743 617.462C266.523 616.106 268.501 616.219 268.501 616.558C268.557 616.925 267.031 617.349 265.591 618.479C264.121 619.581 263.33 620.909 262.963 620.768Z" fill="white"/>
<path d="M260.336 595.478C260.053 595.704 258.697 594.461 256.663 593.613C254.657 592.737 252.849 592.596 252.792 592.228C252.707 591.889 254.798 591.437 257.171 592.454C259.545 593.472 260.646 595.308 260.336 595.478Z" fill="white"/>
<path d="M123.057 378.804C123.057 378.804 102.884 449.192 125.147 463.716C154.276 482.705 277.089 478.325 274.857 480.472C263.472 491.464 242.254 546.141 229.06 578.722L258.075 598.162C258.075 598.162 318.197 510.312 329.3 487.395C336.787 471.967 337.041 449.418 318.705 441.336C307.178 436.25 209.396 410.48 209.396 410.48L198.265 381.008L123.028 378.804H123.057Z" fill="#085FB4"/>
<path d="M123.057 378.804C123.057 378.804 123.48 378.804 124.328 378.804C125.176 378.804 126.447 378.86 128.086 378.888C131.419 378.973 136.364 379.115 142.777 379.256C155.66 379.595 174.476 380.132 198.321 380.753H198.463L198.519 380.895C201.881 389.767 205.639 399.686 209.679 410.367L209.509 410.225C226.715 414.775 245.814 419.861 266.466 425.512C276.779 428.366 287.515 431.333 298.533 434.526C304.042 436.165 309.665 437.776 315.287 439.669C320.937 441.449 326.418 444.897 329.78 450.124L330.995 452.102C331.362 452.78 331.645 453.515 331.956 454.222C332.097 454.589 332.267 454.928 332.436 455.295L332.775 456.397C333.001 457.132 333.284 457.867 333.453 458.63C334.188 461.681 334.442 464.818 334.414 467.983C334.188 474.284 332.747 480.642 330.035 486.491C329.413 487.989 328.565 489.373 327.859 490.814C327.125 492.255 326.305 493.668 325.514 495.081C323.932 497.907 322.237 500.704 320.542 503.53C317.151 509.153 313.62 514.748 310.032 520.399C295.651 542.977 280.225 566.062 264.263 589.657C262.285 592.567 260.336 595.45 258.358 598.304L258.16 598.615L257.849 598.417C247.933 591.776 238.186 585.221 228.834 578.976L228.58 578.806L228.693 578.524C237.931 555.72 246.69 533.454 256.239 512.487C258.64 507.26 261.07 502.089 263.698 497.087C266.353 492.114 268.981 487.169 272.343 482.733L273.727 481.15L274.405 480.359L274.575 480.161C274.631 480.077 274.405 480.303 274.575 480.472C274.603 480.529 274.66 480.529 274.603 480.529C274.518 480.5 274.349 480.444 274.179 480.444C272.88 480.274 271.495 480.218 270.139 480.161C267.427 480.048 264.715 480.02 262.031 479.964C256.663 479.879 251.323 479.766 246.096 479.681C225.105 479.285 205.243 478.579 186.766 477.081C177.527 476.318 168.628 475.386 160.124 474.086C151.648 472.786 143.54 471.204 136.053 468.802C132.323 467.587 128.735 466.146 125.543 464.196C122.322 462.218 119.949 459.195 118.48 455.973C116.954 452.752 116.106 449.39 115.513 446.14C114.92 442.862 114.666 439.641 114.553 436.561C114.185 424.128 115.739 413.532 117.124 404.97C118.593 396.408 120.118 389.852 121.22 385.444C121.785 383.24 122.209 381.573 122.52 380.443C122.831 379.312 123.028 378.747 123.028 378.747C122.915 379.199 122.435 381.177 121.361 385.472C120.316 389.909 118.819 396.464 117.406 405.026C116.05 413.588 114.524 424.184 114.948 436.533C115.089 439.613 115.344 442.806 115.937 446.055C116.53 449.305 117.378 452.611 118.875 455.776C120.344 458.94 122.661 461.851 125.797 463.772C128.961 465.694 132.521 467.107 136.222 468.322C143.681 470.695 151.761 472.278 160.237 473.549C168.713 474.821 177.612 475.753 186.823 476.488C205.3 477.957 225.161 478.664 246.125 479.031C251.38 479.116 256.691 479.201 262.059 479.285C264.743 479.342 267.455 479.398 270.196 479.483C271.552 479.54 272.908 479.568 274.321 479.766C274.49 479.794 274.66 479.822 274.914 479.907C274.97 479.907 275.055 479.964 275.168 480.105C275.366 480.387 275.083 480.642 275.083 480.642L274.914 480.84L274.236 481.602L272.908 483.128C269.602 487.48 266.975 492.425 264.347 497.398C261.748 502.4 259.318 507.542 256.917 512.77C247.396 533.708 238.638 555.975 229.427 578.778L229.286 578.326C238.609 584.571 248.357 591.098 258.301 597.767L257.793 597.852C259.742 594.969 261.72 592.087 263.669 589.205C279.632 565.639 295.058 542.524 309.438 519.975C313.027 514.324 316.558 508.729 319.948 503.106C321.644 500.309 323.31 497.511 324.921 494.685C325.74 493.273 326.531 491.888 327.266 490.447C327.972 489.006 328.82 487.621 329.441 486.152C332.097 480.359 333.538 474.114 333.764 467.898C333.764 464.79 333.538 461.71 332.832 458.714C332.662 457.98 332.408 457.245 332.182 456.51L331.843 455.408C331.701 455.069 331.532 454.702 331.391 454.363C331.08 453.685 330.797 452.978 330.458 452.3L329.3 450.379C326.023 445.292 320.739 441.93 315.145 440.15C309.551 438.256 303.929 436.617 298.42 434.979C287.402 431.757 276.666 428.762 266.353 425.908C245.701 420.228 226.63 415.086 209.425 410.508H209.312L209.255 410.367C205.243 399.686 201.486 389.739 198.152 380.866L198.35 381.008C174.561 380.273 155.773 379.68 142.918 379.284C136.477 379.086 131.561 378.917 128.199 378.804C126.532 378.747 125.26 378.691 124.413 378.662C123.565 378.634 123.113 378.606 123.113 378.606L123.057 378.804Z" fill="#085FB4"/>
<path d="M253.498 269.478C253.498 269.478 247.198 264.109 247.452 259.249C247.707 254.388 248.046 253.71 246.859 251.761C245.672 249.811 242.762 246.307 244.401 245.968C246.012 245.629 248.667 244.696 250.786 247.748L252.566 249.952L252.058 236.756C252.058 236.756 247.113 235.993 247.283 234.213C247.452 232.433 248.978 230.54 251.38 230.285C253.753 230.031 258.358 233.789 258.358 233.789L259.46 240.316C259.46 240.316 268.246 239.017 269.263 244.725C269.263 244.725 274.829 245.29 274.575 248.963C274.575 248.963 279.18 249.896 278.502 255.434C277.824 260.972 275.79 267.613 273.727 271.258C271.693 274.931 272.71 275.27 272.71 275.27L258.245 276.966L252.933 271.597L253.498 269.478Z" fill="#FFC19D"/>
<path d="M269.913 244.753C269.941 244.894 267.794 244.442 265.054 246.109C263.698 246.9 262.341 248.228 261.014 249.896C260.364 250.743 259.686 251.619 258.951 252.552C258.217 253.456 257.228 254.417 255.843 254.671C255.194 254.784 254.459 254.756 253.837 254.417C253.216 254.106 252.764 253.512 252.538 252.919C252.086 251.704 252.255 250.489 252.425 249.443C252.764 247.296 253.527 245.403 254.544 244.103C255.561 242.775 256.719 242.012 257.539 241.645C258.386 241.277 258.895 241.249 258.923 241.305C258.923 241.362 258.443 241.475 257.68 241.899C256.917 242.323 255.872 243.114 254.968 244.385C254.064 245.657 253.385 247.466 253.103 249.528C252.962 250.546 252.849 251.676 253.216 252.665C253.555 253.654 254.629 254.191 255.73 253.965C256.832 253.767 257.708 252.976 258.414 252.1C259.121 251.224 259.799 250.291 260.505 249.472C261.861 247.805 263.33 246.477 264.799 245.685C266.24 244.866 267.596 244.612 268.529 244.612C269.461 244.612 269.941 244.753 269.941 244.781L269.913 244.753Z" fill="#FF9C6A"/>
<path d="M274.688 248.85C274.773 248.963 272.286 249.472 269.8 252.354C268.585 253.767 267.342 255.688 265.845 257.723C265.11 258.74 264.347 259.814 263.528 260.916C262.737 262.046 261.861 263.205 260.759 264.222C260.194 264.73 259.629 265.183 259.036 265.578C258.471 266.03 257.623 266.313 256.86 266.256C256.098 266.256 255.363 265.974 254.77 265.522C254.148 265.07 253.866 264.278 253.781 263.628C253.583 262.3 253.866 261.029 254.233 259.983C254.572 258.91 254.996 257.921 255.42 257.073C256.295 255.349 257.228 254.106 257.906 253.258C258.584 252.439 259.008 252.015 259.036 252.043C259.064 252.071 258.725 252.552 258.132 253.428C257.539 254.304 256.663 255.575 255.872 257.271C255.476 258.118 255.109 259.079 254.798 260.153C254.459 261.227 254.233 262.329 254.431 263.544C254.516 264.137 254.713 264.646 255.194 264.985C255.646 265.352 256.239 265.55 256.86 265.55C257.51 265.55 258.019 265.409 258.584 264.985C259.149 264.589 259.714 264.165 260.251 263.685C261.296 262.752 262.144 261.622 262.935 260.52C263.726 259.418 264.517 258.344 265.28 257.327C266.805 255.321 268.077 253.456 269.405 252.015C270.732 250.602 272.089 249.726 273.077 249.302C274.066 248.878 274.688 248.822 274.688 248.85Z" fill="#FF9C6A"/>
<path d="M275.733 255.66C275.818 255.717 275.338 256.79 274.321 258.429C273.303 260.068 271.693 262.216 269.602 264.278C268.557 265.324 267.399 266.285 266.043 266.595C264.686 266.963 263.387 266.454 262.624 265.832C261.833 265.183 261.437 264.42 261.296 263.883C261.155 263.346 261.211 263.035 261.24 263.035C261.381 262.979 261.409 264.335 262.935 265.409C263.669 265.917 264.743 266.285 265.873 265.946C267.003 265.635 268.077 264.759 269.066 263.741C273.19 259.672 275.535 255.519 275.705 255.632L275.733 255.66Z" fill="#FF9C6A"/>
<path d="M256.295 347.467C256.663 347.467 267.399 338.396 267.879 327.404C268.359 316.412 272.823 273.886 272.823 273.886L252.877 271.597C252.877 271.597 242.734 320.397 240.078 324.522C237.423 328.619 219.059 344.952 219.059 344.952L256.267 347.495L256.295 347.467Z" fill="#3BB5A7"/>
<path d="M194.733 240.316C194.733 240.316 226.404 260.068 228.523 251.082C231.716 256.903 237.14 270.947 239.429 279.989C244.175 298.667 243.921 318.277 240.163 326.5C236.18 335.288 223.155 346.393 223.155 346.393L201.005 384.257L124.102 379.764C124.102 379.764 120.881 375.695 122.181 371.683C127.097 356.396 141.844 319.012 149.953 299.176C161.989 269.704 165.577 254.841 181.907 244.329C187.501 240.712 194.761 240.288 194.761 240.288L194.733 240.316Z" fill="#64D9CC"/>
<path d="M239.852 281.741C239.852 281.741 239.937 281.939 240.05 282.363C240.163 282.871 240.305 283.465 240.474 284.199C240.813 285.782 241.293 288.099 241.774 290.981C242.678 296.746 243.78 304.771 243.497 313.7C243.384 315.932 243.215 318.108 242.791 320.199C242.395 322.29 241.661 324.24 240.785 325.963C239.061 329.467 236.886 332.265 234.824 334.327C232.733 336.418 230.812 337.803 229.484 338.735C228.806 339.187 228.269 339.527 227.902 339.753C227.534 339.979 227.337 340.063 227.308 340.063C227.28 340.007 228.015 339.498 229.314 338.538C230.614 337.549 232.45 336.108 234.456 334.016C236.462 331.925 238.553 329.156 240.192 325.709C241.039 323.985 241.745 322.149 242.113 320.086C242.536 318.051 242.678 315.904 242.791 313.7C243.101 304.855 242.056 296.83 241.293 291.094C240.87 288.212 240.502 285.895 240.248 284.284C240.135 283.55 240.022 282.928 239.965 282.419C239.909 281.995 239.881 281.769 239.909 281.769L239.852 281.741Z" fill="#64D9CC"/>
<path d="M291.498 347.862L305.568 340.968C305.568 340.968 314.354 341.646 317.01 343.228C319.666 344.811 326.842 349.247 326.842 349.247C326.842 349.247 336.363 347.665 337.493 349.671C339.414 353.118 332.069 355.266 332.069 355.266L336.702 358.854C336.702 358.854 332.323 361.765 328.481 359.985C324.667 358.176 324.469 356.961 324.469 356.961L322.039 357.526L329.328 366.568C329.328 366.568 326.051 368.236 322.717 366.653C319.383 365.071 315.795 359.843 315.795 359.843C315.795 359.843 301.471 364.534 296.499 365.212C291.526 365.89 282.005 365.043 282.005 365.043L286.243 347.495L291.413 347.862H291.498Z" fill="#FFC19D"/>
<path d="M332.549 354.701C332.606 354.898 326.955 356.82 319.948 358.996C312.914 361.171 307.178 362.782 307.122 362.584C307.065 362.386 312.716 360.465 319.751 358.289C326.785 356.113 332.521 354.503 332.577 354.701H332.549Z" fill="#FF9C6A"/>
<path d="M312.038 350.264C312.038 350.066 315.428 349.643 319.609 349.303C323.819 348.993 327.238 348.88 327.238 349.077C327.238 349.275 323.847 349.699 319.666 350.038C315.456 350.349 312.038 350.462 312.038 350.264Z" fill="#FF9C6A"/>
<path d="M309.043 343.228C309.156 343.059 311.557 344.33 314.439 346.11C317.321 347.862 319.553 349.445 319.44 349.614C319.327 349.784 316.925 348.484 314.044 346.732C311.19 344.98 308.93 343.398 309.043 343.228Z" fill="#FF9C6A"/>
<path d="M171.001 294.4C171.001 296.293 189.62 372.842 206.543 377.08C223.466 381.319 286.865 366.936 286.865 366.936V345.743L226.715 339.866C226.715 339.866 224.963 326.585 224.54 321.329C224.229 317.458 217.59 253.936 203.011 245.459C188.433 237.01 177.443 244.612 172.809 255.717C165.916 272.219 171.001 294.457 171.001 294.457V294.4Z" fill="#00BEAB"/>
<path d="M171.001 294.4C171.001 294.4 170.916 294.118 170.803 293.553C170.69 292.987 170.521 292.14 170.323 291.038C169.956 288.805 169.475 285.499 169.193 281.176C168.967 276.881 168.939 271.54 169.899 265.409C170.464 262.357 171.199 259.107 172.527 255.83C173.826 252.552 175.86 249.302 178.714 246.533C180.211 245.233 181.822 243.99 183.743 243.142C185.636 242.323 187.727 241.673 189.902 241.588C194.281 241.277 198.773 242.718 202.842 244.979C204.961 246.137 206.543 248.031 207.899 250.037C209.227 252.071 210.357 254.275 211.346 256.564C213.352 261.142 214.849 266.087 216.262 271.173C219.002 281.374 221.036 292.366 222.76 303.838C223.607 309.602 224.37 315.452 224.963 321.47C225.67 327.461 226.376 333.536 227.111 339.724L226.8 339.414C239.57 340.657 252.82 341.957 266.382 343.285C273.332 343.963 280.197 344.641 286.949 345.291H287.288V345.658C287.288 352.836 287.288 359.928 287.288 366.851V367.134L287.006 367.19C274.942 369.846 263.217 372.135 251.888 374.057C240.559 375.922 229.653 377.504 219.2 377.984C216.601 378.097 214.001 378.126 211.459 377.956C210.187 377.871 208.916 377.758 207.673 377.504C206.43 377.334 205.158 376.882 204.113 376.204C201.994 374.819 200.327 372.983 198.886 371.061C197.445 369.14 196.202 367.162 195.044 365.156C190.552 357.102 187.444 349.134 184.76 341.9C179.505 327.348 176.228 315.367 174.024 307.144C172.95 303.019 172.188 299.826 171.679 297.65C171.425 296.576 171.255 295.728 171.171 295.163C171.058 294.598 171.058 294.315 171.058 294.315C171.058 294.315 171.284 295.446 171.82 297.622C172.357 299.797 173.148 302.962 174.278 307.088C176.539 315.282 179.901 327.235 185.212 341.759C187.924 348.993 191.032 356.933 195.524 364.901C196.654 366.879 197.897 368.857 199.338 370.722C200.751 372.587 202.39 374.396 204.424 375.695C205.441 376.345 206.543 376.713 207.786 376.91C209.001 377.137 210.244 377.278 211.487 377.334C214.001 377.476 216.572 377.476 219.172 377.334C229.569 376.826 240.474 375.243 251.775 373.35C263.076 371.429 274.829 369.14 286.865 366.455L286.582 366.795C286.582 359.843 286.582 352.779 286.582 345.602L286.921 345.969C280.169 345.319 273.303 344.641 266.353 343.963C252.792 342.635 239.513 341.335 226.772 340.092H226.489V339.781C225.726 333.593 225.02 327.489 224.342 321.47C223.777 315.48 222.986 309.602 222.166 303.866C220.471 292.394 218.437 281.43 215.753 271.258C214.369 266.172 212.871 261.283 210.894 256.734C209.933 254.445 208.831 252.269 207.532 250.291C206.232 248.313 204.706 246.476 202.7 245.403C198.717 243.17 194.309 241.729 190.071 242.04C187.953 242.097 185.947 242.747 184.082 243.51C182.217 244.329 180.635 245.544 179.166 246.816C176.369 249.5 174.335 252.693 173.035 255.914C171.707 259.164 170.945 262.385 170.379 265.38C169.391 271.456 169.391 276.768 169.588 281.063C169.814 285.358 170.238 288.664 170.577 290.896C170.747 291.998 170.888 292.846 171.001 293.411C171.114 293.976 171.142 294.259 171.142 294.259L171.001 294.4Z" fill="#00BEAB"/>
<path d="M244.316 654.083H64.2349C61.7769 654.083 59.4884 652.896 57.9063 650.833C56.1264 648.488 55.5331 645.323 56.3807 642.384L100.426 485.276L103.139 486.039L59.0929 643.176C58.4996 645.267 58.8951 647.499 60.1665 649.166C61.2118 650.551 62.6527 651.285 64.2349 651.285H244.316C245.927 651.285 247.424 650.466 248.47 649.053C249.741 647.301 250.08 645.012 249.374 642.893L198.124 486.124L200.808 485.248L252.058 642.017C253.018 644.984 252.538 648.234 250.758 650.692C249.204 652.84 246.859 654.083 244.345 654.083H244.316Z" fill="#25224A"/>
<path d="M89.1819 468.322C89.1254 467.87 89.0971 467.446 89.0689 466.994C88.7016 458.545 92.1201 450.463 95.3974 442.664C104.212 421.783 112.773 399.657 110.287 377.108C107.009 347.326 85.17 322.685 77.3723 293.863C76.4682 290.473 73.3605 288.127 69.8289 288.127C64.5457 288.127 60.7316 293.242 62.342 298.271C71.0155 325.229 90.8205 348.823 93.9565 377.08C96.4428 399.601 87.9105 421.754 79.0675 442.636C75.7619 450.435 72.3434 458.517 72.7389 466.965C73.1062 475.414 78.5307 484.287 86.8652 485.643H210.978C215.301 485.643 218.804 482.139 218.804 477.816V476.121C218.804 471.797 215.301 468.293 210.978 468.293H89.1819V468.322Z" fill="#301325"/>
<path d="M397.812 283.691C396.202 283.38 394.648 284.454 394.337 286.064L377.753 374.028H297.036C295.821 374.028 294.86 375.017 294.86 376.204C294.86 377.419 295.849 378.38 297.036 378.38H382.641V378.041L383.036 378.126L400.186 287.166C400.496 285.556 399.423 284.002 397.812 283.691Z" fill="#25224A"/>
<path d="M232.027 381.46H218.183V653.744H232.027V381.46Z" fill="#E6B78B"/>
<path d="M477.824 380.075H463.952V654.083H477.824V380.075Z" fill="#E6B78B"/>
<path d="M496.357 378.804H199.225V395.165H496.357V378.804Z" fill="#E6B78B"/>
<path d="M496.329 395.165C496.329 395.362 430.275 395.532 348.794 395.532C267.314 395.532 201.231 395.362 201.231 395.165C201.231 394.967 267.286 394.797 348.794 394.797C430.303 394.797 496.329 394.967 496.329 395.165Z" fill="#E6B78B"/>
<path d="M424.765 255.575C422.759 255.293 420.951 256.225 419.991 257.61C419.03 258.994 418.804 260.718 418.861 262.442C418.889 263.968 419.143 265.578 420.188 266.963C421.403 268.602 423.579 269.675 425.669 269.958C427.76 270.241 429.794 269.873 431.602 269.223C432.083 267.245 431.602 264.787 431.122 262.696C430.811 261.17 430.275 259.616 429.201 258.288C428.156 256.932 426.517 255.83 424.765 255.575Z" fill="#375A64"/>
<path d="M468.105 250.969C468.105 250.969 468.048 251.195 467.907 251.648C467.737 252.128 467.54 252.778 467.285 253.569C466.72 255.236 465.929 257.638 465.025 260.633C464.093 263.628 463.076 267.217 462.059 271.201C461.041 275.214 460.053 279.65 459.149 284.341C458.273 289.031 457.595 293.524 457.058 297.622C456.549 301.719 456.182 305.42 455.956 308.557C455.73 311.665 455.561 314.208 455.504 315.96C455.448 316.78 455.419 317.458 455.391 317.967C455.363 318.419 455.335 318.673 455.306 318.673C455.306 318.673 455.306 318.419 455.278 317.967C455.278 317.458 455.278 316.78 455.278 315.96C455.278 314.208 455.391 311.665 455.561 308.557C455.73 305.42 456.069 301.719 456.549 297.593C457.058 293.468 457.708 288.975 458.584 284.256C459.488 279.565 460.505 275.129 461.522 271.117C462.567 267.104 463.612 263.515 464.601 260.548C465.562 257.581 466.41 255.18 467.031 253.541C467.342 252.75 467.568 252.128 467.766 251.648C467.935 251.224 468.048 250.998 468.048 250.998L468.105 250.969Z" fill="#1A2E35"/>
<path d="M428.918 264.928C428.918 264.928 429.06 265.098 429.286 265.465C429.54 265.889 429.879 266.426 430.274 267.076C431.15 268.489 432.337 270.551 433.721 273.151C435.134 275.751 436.688 278.887 438.326 282.448C439.937 286.008 441.576 289.964 443.101 294.202C444.627 298.441 445.898 302.538 446.943 306.296C447.961 310.055 448.78 313.474 449.345 316.384C449.938 319.266 450.334 321.612 450.56 323.251C450.673 324.014 450.758 324.635 450.814 325.144C450.871 325.568 450.899 325.794 450.871 325.794C450.871 325.794 450.786 325.568 450.701 325.144C450.616 324.663 450.503 324.042 450.334 323.279C450.051 321.668 449.571 319.323 448.949 316.441C448.328 313.558 447.48 310.168 446.435 306.409C445.361 302.68 444.09 298.582 442.564 294.372C441.039 290.162 439.4 286.206 437.846 282.645C436.264 279.113 434.738 275.948 433.354 273.349C431.998 270.749 430.868 268.63 430.048 267.217C429.681 266.539 429.37 265.974 429.144 265.55C428.947 265.154 428.834 264.957 428.862 264.957L428.918 264.928Z" fill="#1A2E35"/>
<path d="M465.11 313.078H442.141C442.016 313.078 441.915 313.179 441.915 313.304V315.056C441.915 315.181 442.016 315.282 442.141 315.282H465.11C465.235 315.282 465.336 315.181 465.336 315.056V313.304C465.336 313.179 465.235 313.078 465.11 313.078Z" fill="#FF735D"/>
<path d="M472.992 337.803C472.201 329.241 465.449 328.054 464.149 327.15C463.867 326.952 463.612 326.698 463.415 326.444C462.595 325.426 462.2 324.155 462.2 322.855V314.18H445.248V322.855C445.248 324.155 444.853 325.426 444.034 326.444C443.807 326.726 443.553 326.952 443.299 327.15C441.999 328.054 435.247 329.241 434.456 337.803C433.665 346.365 430.811 365.862 435.897 372.107C440.558 377.843 445.135 378.182 452.707 378.21C453.046 378.21 453.385 378.21 453.724 378.21C454.063 378.21 454.402 378.21 454.741 378.21C462.341 378.21 466.89 377.843 471.551 372.107C476.609 365.862 473.755 346.393 472.992 337.803Z" fill="#FF9561"/>
<path d="M464.799 315.339C464.799 315.48 459.798 315.593 453.639 315.593C447.48 315.593 442.48 315.48 442.48 315.339C442.48 315.197 447.48 315.084 453.639 315.084C459.798 315.084 464.799 315.197 464.799 315.339Z" fill="#1A2E35"/>
<path d="M478.389 244.385C477.626 242.436 475.592 241.192 473.529 240.91C471.467 240.627 469.348 241.192 467.427 241.955C465.731 242.634 464.036 243.566 463.019 245.092C461.804 246.9 461.776 249.359 462.595 251.393C463.386 253.428 464.912 255.095 466.636 256.479C469.122 256.056 471.636 254.558 473.783 253.23C475.337 252.297 476.806 251.111 477.767 249.585C478.728 248.031 479.095 246.053 478.445 244.385H478.389Z" fill="#375A64"/>
<path d="M423.692 286.969C422.788 285.612 422.901 283.719 423.663 282.278C424.426 280.809 425.726 279.707 427.082 278.831C428.297 278.039 429.653 277.361 431.094 277.418C432.817 277.474 434.399 278.548 435.332 279.961C436.292 281.402 436.66 283.126 436.773 284.849C435.388 286.262 433.269 287.195 431.461 287.986C430.162 288.551 428.749 288.975 427.336 288.89C425.924 288.805 424.483 288.155 423.692 286.969Z" fill="#375A64"/>
<path d="M446.746 276.344C445.842 274.988 445.955 273.095 446.717 271.653C447.48 270.184 448.78 269.082 450.136 268.206C451.351 267.415 452.707 266.737 454.148 266.793C455.871 266.85 457.453 267.924 458.386 269.336C459.346 270.777 459.714 272.501 459.827 274.225C458.442 275.638 456.323 276.57 454.515 277.361C453.216 277.926 451.803 278.35 450.39 278.266C448.978 278.181 447.537 277.531 446.746 276.344Z" fill="#375A64"/>
<path d="M477.174 274.677C478.276 273.434 478.389 271.54 477.824 269.958C477.258 268.404 476.1 267.104 474.829 266.03C473.727 265.07 472.427 264.222 470.986 264.052C469.263 263.855 467.511 264.73 466.381 266.059C465.223 267.358 464.601 269.054 464.262 270.777C465.477 272.388 467.455 273.603 469.178 274.649C470.421 275.412 471.777 276.005 473.218 276.118C474.659 276.231 476.185 275.779 477.145 274.677H477.174Z" fill="#375A64"/>
<path d="M445.39 262.724C445.051 260.803 443.836 259.475 442.508 259.107C441.18 258.712 439.767 259.107 438.44 259.786C437.281 260.351 436.095 261.17 435.303 262.583C434.371 264.278 434.145 266.624 434.484 268.63C434.823 270.636 435.671 272.36 436.66 273.773C438.298 273.518 440.078 272.19 441.576 271.032C442.649 270.212 443.723 269.167 444.457 267.726C445.22 266.285 445.616 264.391 445.333 262.724H445.39Z" fill="#375A64"/>
<path d="M455.617 250.574C453.611 250.291 451.803 251.224 450.842 252.608C449.882 253.993 449.656 255.717 449.712 257.44C449.741 258.966 449.995 260.577 451.04 261.961C452.255 263.6 454.43 264.674 456.521 264.957C458.612 265.239 460.646 264.872 462.454 264.222C462.934 262.244 462.454 259.786 461.974 257.694C461.663 256.169 461.126 254.614 460.053 253.286C459.007 251.93 457.369 250.828 455.617 250.574Z" fill="#375A64"/>
<path d="M437.225 265.691C437.309 265.691 437.225 266.652 437.083 268.206C436.97 269.76 436.886 271.908 436.999 274.281C437.112 276.655 437.451 278.774 437.761 280.3C438.072 281.826 438.327 282.758 438.242 282.787C438.185 282.787 437.79 281.911 437.394 280.385C436.999 278.859 436.603 276.711 436.49 274.31C436.377 271.908 436.518 269.732 436.744 268.178C436.942 266.624 437.168 265.663 437.253 265.691H437.225Z" fill="#1A2E35"/>
<path d="M441.858 291.207C441.717 291.264 440.869 289.371 439.146 287.534C438.298 286.601 437.422 285.867 436.744 285.415C436.066 284.934 435.586 284.765 435.614 284.68C435.614 284.623 436.179 284.68 436.942 285.104C437.705 285.499 438.637 286.234 439.541 287.195C441.321 289.116 441.999 291.179 441.886 291.207H441.858Z" fill="#1A2E35"/>
<path d="M459.403 273.688C459.516 273.631 460.109 275.186 460.222 277.192C460.335 279.198 459.911 280.78 459.798 280.752C459.657 280.752 459.827 279.142 459.714 277.22C459.601 275.299 459.262 273.744 459.403 273.688Z" fill="#1A2E35"/>
<path d="M465.421 269.139C465.534 269.223 464.573 270.806 463.273 272.671C461.974 274.536 460.816 276.005 460.703 275.92C460.59 275.835 461.55 274.253 462.85 272.388C464.149 270.523 465.308 269.054 465.421 269.139Z" fill="#1A2E35"/>
<path d="M462.228 268.771C462.087 268.771 462.03 267.387 462.115 265.719C462.2 264.024 462.369 262.668 462.511 262.696C462.652 262.696 462.708 264.081 462.624 265.748C462.539 267.415 462.369 268.799 462.228 268.771Z" fill="#1A2E35"/>
<path d="M436.236 352.92C436.179 352.92 436.01 351.705 435.897 349.699C435.784 347.693 435.727 344.952 435.897 341.9C435.982 340.374 436.038 338.933 436.236 337.605C436.434 336.277 436.829 335.09 437.394 334.243C437.959 333.367 438.609 332.83 439.118 332.547C439.626 332.265 439.937 332.208 439.937 332.236C439.993 332.321 438.694 332.688 437.705 334.412C437.225 335.26 436.886 336.362 436.716 337.662C436.547 338.961 436.49 340.403 436.405 341.928C436.264 344.952 436.264 347.721 436.292 349.699C436.292 351.677 436.349 352.92 436.292 352.92H436.236Z" fill="#1A2E35"/>
<path d="M0 654H535" stroke="#2C1524" stroke-width="2" stroke-linejoin="round"/>
</svg>
